Des soldats français blessés au cours de leur mission en Afghanistan témoignent. L'Etat-major et le service de santé des Armées ont exceptionnellement autorisé une équipe de télévision à filmer durant plusieurs semaines le parcours de ces hommes. 

Duration: 00:46:14.38, start: 0.000000, bitrate: 1209 kb/s
  Stream #0:0: Video: h264 (Main), yuv420p, 640x360, SAR 1:1 DAR 16:9, 1k fps, 25 tbr, 1k tbn, 2k tbc (default)
  Stream #0:1: Audio: aac, 44100 Hz, stereo, s16 (default)